<svg width="63" height="9" viewBox="0 0 63 9" fill="none" xmlns="http://www.w3.org/2000/svg">
<path d="M3.9041e-06 4.65588C3.9041e-06 3.82388 0.180004 3.08388 0.540004 2.43588C0.900004 1.77988 1.4 1.27188 2.04 0.911882C2.688 0.543882 3.42 0.359882 4.236 0.359882C5.236 0.359882 6.092 0.623882 6.804 1.15188C7.516 1.67988 7.992 2.39988 8.232 3.31188H5.976C5.808 2.95988 5.568 2.69188 5.256 2.50788C4.952 2.32388 4.604 2.23188 4.212 2.23188C3.58 2.23188 3.068 2.45188 2.676 2.89188C2.284 3.33188 2.088 3.91988 2.088 4.65588C2.088 5.39188 2.284 5.97988 2.676 6.41988C3.068 6.85988 3.58 7.07988 4.212 7.07988C4.604 7.07988 4.952 6.98788 5.256 6.80388C5.568 6.61988 5.808 6.35188 5.976 5.99988H8.232C7.992 6.91188 7.516 7.63188 6.804 8.15988C6.092 8.67988 5.236 8.93988 4.236 8.93988C3.42 8.93988 2.688 8.75988 2.04 8.39988C1.4 8.03188 0.900004 7.52388 0.540004 6.87588C0.180004 6.22788 3.9041e-06 5.48788 3.9041e-06 4.65588ZM9.08063 5.51988C9.08063 4.83188 9.20863 4.22788 9.46463 3.70788C9.72863 3.18788 10.0846 2.78788 10.5326 2.50788C10.9806 2.22788 11.4806 2.08788 12.0326 2.08788C12.5046 2.08788 12.9166 2.18388 13.2686 2.37588C13.6286 2.56788 13.9046 2.81988 14.0966 3.13188V2.18388H16.1486V8.87988H14.0966V7.93188C13.8966 8.24388 13.6166 8.49588 13.2566 8.68788C12.9046 8.87988 12.4926 8.97588 12.0206 8.97588C11.4766 8.97588 10.9806 8.83588 10.5326 8.55588C10.0846 8.26788 9.72863 7.86388 9.46463 7.34388C9.20863 6.81588 9.08063 6.20788 9.08063 5.51988ZM14.0966 5.53188C14.0966 5.01988 13.9526 4.61588 13.6646 4.31988C13.3846 4.02388 13.0406 3.87588 12.6326 3.87588C12.2246 3.87588 11.8766 4.02388 11.5886 4.31988C11.3086 4.60788 11.1686 5.00788 11.1686 5.51988C11.1686 6.03188 11.3086 6.43988 11.5886 6.74388C11.8766 7.03988 12.2246 7.18788 12.6326 7.18788C13.0406 7.18788 13.3846 7.03988 13.6646 6.74388C13.9526 6.44788 14.0966 6.04388 14.0966 5.53188ZM20.3572 8.97588C19.7732 8.97588 19.2532 8.87588 18.7972 8.67588C18.3412 8.47588 17.9812 8.20388 17.7172 7.85988C17.4532 7.50788 17.3052 7.11588 17.2732 6.68388H19.3012C19.3252 6.91588 19.4332 7.10388 19.6252 7.24788C19.8172 7.39188 20.0532 7.46388 20.3332 7.46388C20.5892 7.46388 20.7852 7.41588 20.9212 7.31988C21.0652 7.21588 21.1372 7.08388 21.1372 6.92388C21.1372 6.73188 21.0372 6.59188 20.8372 6.50388C20.6372 6.40788 20.3132 6.30388 19.8652 6.19188C19.3852 6.07988 18.9852 5.96388 18.6652 5.84388C18.3452 5.71588 18.0692 5.51988 17.8372 5.25588C17.6052 4.98388 17.4892 4.61988 17.4892 4.16388C17.4892 3.77988 17.5932 3.43188 17.8012 3.11988C18.0172 2.79988 18.3292 2.54788 18.7372 2.36388C19.1532 2.17988 19.6452 2.08788 20.2132 2.08788C21.0532 2.08788 21.7132 2.29588 22.1932 2.71188C22.6812 3.12788 22.9612 3.67988 23.0332 4.36788H21.1372C21.1052 4.13588 21.0012 3.95188 20.8252 3.81588C20.6572 3.67988 20.4332 3.61188 20.1532 3.61188C19.9132 3.61188 19.7292 3.65988 19.6012 3.75588C19.4732 3.84388 19.4092 3.96788 19.4092 4.12788C19.4092 4.31988 19.5092 4.46388 19.7092 4.55988C19.9172 4.65588 20.2372 4.75188 20.6692 4.84788C21.1652 4.97588 21.5692 5.10388 21.8812 5.23188C22.1932 5.35188 22.4652 5.55188 22.6972 5.83188C22.9372 6.10388 23.0612 6.47188 23.0692 6.93588C23.0692 7.32788 22.9572 7.67988 22.7332 7.99188C22.5172 8.29588 22.2012 8.53588 21.7852 8.71188C21.3772 8.88788 20.9012 8.97588 20.3572 8.97588ZM28.4406 2.11188C29.2086 2.11188 29.8246 2.36788 30.2886 2.87988C30.7526 3.38388 30.9846 4.07988 30.9846 4.96788V8.87988H28.9446V5.24388C28.9446 4.79588 28.8286 4.44788 28.5966 4.19988C28.3646 3.95188 28.0526 3.82788 27.6606 3.82788C27.2686 3.82788 26.9566 3.95188 26.7246 4.19988C26.4926 4.44788 26.3766 4.79588 26.3766 5.24388V8.87988H24.3246V-0.000117302H26.3766V3.08388C26.5846 2.78788 26.8686 2.55188 27.2286 2.37588C27.5886 2.19988 27.9926 2.11188 28.4406 2.11188Z" fill="black"/>
<path d="M41.9505 0.455883V8.87988H39.8985V3.82788L38.0145 8.87988H36.3585L34.4625 3.81588V8.87988H32.4105V0.455883H34.8345L37.1985 6.28788L39.5385 0.455883H41.9505ZM43.0181 5.51988C43.0181 4.83188 43.1461 4.22788 43.4021 3.70788C43.6661 3.18788 44.0221 2.78788 44.4701 2.50788C44.9181 2.22788 45.4181 2.08788 45.9701 2.08788C46.4421 2.08788 46.8541 2.18388 47.2061 2.37588C47.5661 2.56788 47.8421 2.81988 48.0341 3.13188V2.18388H50.0861V8.87988H48.0341V7.93188C47.8341 8.24388 47.5541 8.49588 47.1941 8.68788C46.8421 8.87988 46.4301 8.97588 45.9581 8.97588C45.4141 8.97588 44.9181 8.83588 44.4701 8.55588C44.0221 8.26788 43.6661 7.86388 43.4021 7.34388C43.1461 6.81588 43.0181 6.20788 43.0181 5.51988ZM48.0341 5.53188C48.0341 5.01988 47.8901 4.61588 47.6021 4.31988C47.3221 4.02388 46.9781 3.87588 46.5701 3.87588C46.1621 3.87588 45.8141 4.02388 45.5261 4.31988C45.2461 4.60788 45.1061 5.00788 45.1061 5.51988C45.1061 6.03188 45.2461 6.43988 45.5261 6.74388C45.8141 7.03988 46.1621 7.18788 46.5701 7.18788C46.9781 7.18788 47.3221 7.03988 47.6021 6.74388C47.8901 6.44788 48.0341 6.04388 48.0341 5.53188ZM55.3027 7.13988V8.87988H54.2587C53.5147 8.87988 52.9347 8.69988 52.5187 8.33988C52.1027 7.97188 51.8947 7.37588 51.8947 6.55188V3.88788H51.0787V2.18388H51.8947V0.551883H53.9467V2.18388H55.2907V3.88788H53.9467V6.57588C53.9467 6.77588 53.9947 6.91988 54.0907 7.00788C54.1867 7.09588 54.3467 7.13988 54.5707 7.13988H55.3027ZM62.7577 5.42388C62.7577 5.61588 62.7457 5.81588 62.7217 6.02388H58.0777C58.1097 6.43988 58.2417 6.75988 58.4737 6.98388C58.7137 7.19988 59.0057 7.30788 59.3497 7.30788C59.8617 7.30788 60.2177 7.09188 60.4177 6.65988H62.6017C62.4897 7.09988 62.2857 7.49588 61.9897 7.84788C61.7017 8.19988 61.3377 8.47588 60.8977 8.67588C60.4577 8.87588 59.9657 8.97588 59.4217 8.97588C58.7657 8.97588 58.1817 8.83588 57.6697 8.55588C57.1577 8.27588 56.7577 7.87588 56.4697 7.35588C56.1817 6.83588 56.0377 6.22788 56.0377 5.53188C56.0377 4.83588 56.1777 4.22788 56.4577 3.70788C56.7457 3.18788 57.1457 2.78788 57.6577 2.50788C58.1697 2.22788 58.7577 2.08788 59.4217 2.08788C60.0697 2.08788 60.6457 2.22388 61.1497 2.49588C61.6537 2.76788 62.0457 3.15588 62.3257 3.65988C62.6137 4.16388 62.7577 4.75188 62.7577 5.42388ZM60.6577 4.88388C60.6577 4.53188 60.5377 4.25188 60.2977 4.04388C60.0577 3.83588 59.7577 3.73188 59.3977 3.73188C59.0537 3.73188 58.7617 3.83188 58.5217 4.03188C58.2897 4.23188 58.1457 4.51588 58.0897 4.88388H60.6577Z" fill="#4C51BF"/>
</svg>
